<svg height="512" viewBox="0 0 60 41" width="512" xmlns="http://www.w3.org/2000/svg"><g id="Page-1" fill="none" fill-rule="evenodd"><g id="012---Lawn-Mower"><circle id="Oval" cx="10.375" cy="30.625" fill="#35495e" fill-rule="nonzero" r="9.375"/><circle id="Oval" cx="10.375" cy="30.625" fill="#7f8c8d" fill-rule="nonzero" r="3.625"/><circle id="Oval" cx="52" cy="33" fill="#35495e" fill-rule="nonzero" r="7"/><circle id="Oval" cx="52" cy="33" fill="#7f8c8d" fill-rule="nonzero" r="3"/><path id="Shape" d="m41 29v4.5c-.0039533.4367929-.2853334.8226856-.7.96-5.2825111 1.6531668-10.8607107 2.141046-16.35 1.43-.290421-.0374475-.5490754-.2022958-.7056602-.4497384-.1565848-.2474427-.1948298-.5517688-.1043398-.8302616.5698612-1.8118847.7437859-3.7250564.51-5.61z" fill="#2c3e50" fill-rule="nonzero"/><path id="Shape" d="m21.36 23h-.01" stroke="#000" stroke-linecap="round" stroke-linejoin="round" stroke-width="2"/><path id="Shape" d="m22.98 10.5c0 1.3807119-1.1192881 2.5-2.5 2.5h-9.48c-1.1045695 0-2-.8954305-2-2v-8.34c-.0128548-.7074896.26232261-1.38983418.76239295-1.89047021.50007035-.50063602 1.18210335-.77658471 1.88960705-.76452979 1.3211458.07596082 2.3523069 1.17167931 2.348 2.495v5.5h6.48c1.3791159.0038454 2.4961546 1.12088408 2.5 2.5z" fill="#35495e" fill-rule="nonzero"/><path id="Shape" d="m30.694 12.747c-.4094391-.000013-.7775075-.249618-.929-.63l-2.865-7.187c-.1354279-.33257933-.0821358-.71223824.1396216-.99468005.2217574-.2824418.5779288-.42429693.9331444-.3716506.3552155.05264632.6549311.29171015.785234.62633065l2.864 7.186c.1231031.3081337.0853464.6572637-.1007865.931955s-.4963992.4391668-.8282135.439045z" fill="#35495e" fill-rule="nonzero"/><path id="Shape" d="m24 7c-.4841399.00081065-.8993255-.34531195-.9856498-.82169433s.1810094-.94618299.6346498-1.11530567l8-3c.5174908-.19329966 1.0937003.06950919 1.287.587s-.0695092 1.09370034-.587 1.287l-8 3c-.1118106.04103972-.2298973.06235624-.349.063z" fill="#35495e" fill-rule="nonzero"/><path id="Shape" d="m20 21.35v-.01" stroke="#000" stroke-linecap="round" stroke-linejoin="round" stroke-width="2"/><g fill-rule="nonzero"><path id="Shape" d="m38 24.98v4.02h-14.35v-.04c-.7571705-5.9562136-5.3817446-10.6829205-11.32-11.57-.4409773-.0610592-.8849832-.0977815-1.33-.11v-4.28h8.01c.3.2.64.42.99.68 3.0488204 2.1098404 5.5290066 4.9404131 7.22 8.24.3358691.6679886 1.0223573 1.0868627 1.77 1.08h7.08c.5201329.0014776 1.0177934.212186 1.3808515.5846498s.5609718.8753496.5491485 1.3953502z" fill="#e64c3c"/><path id="Shape" d="m59 41h-58c-.55228475 0-1-.4477153-1-1s.44771525-1 1-1h58c.5522847 0 1 .4477153 1 1s-.4477153 1-1 1z" fill="#4fba6f"/><path id="Shape" d="m23.14 35.607c-.1017333-.0003015-.2028502-.0158061-.3-.046-.252889-.0799554-.4636559-.2570997-.5859309-.4924602-.1222749-.2353605-.1460408-.509656-.0660691-.7625398.5302936-1.6879986.6909336-3.4703862.471-5.226-.5489349-4.3858791-3.3963723-8.1455846-7.4694032-9.8624666-4.073031-1.7168821-8.75265421-1.1300167-12.2755968 1.5394666-.28474068.2157884-.66297366.2632778-.99222225.1245793-.32924858-.1386984-.55949208-.4425131-.604-.797-.04450791-.3544868.10348157-.7057909.38822225-.9215793 3.0714897-2.3304714 6.95184148-3.3263298 10.766-2.763 6.3719613.9780091 11.3319862 6.0472515 12.171 12.439.253999 2.0390339.0664232 4.1088477-.55 6.069-.1312661.4158759-.5168997.6987278-.953.699z" fill="#3f5c6c"/><path id="Shape" d="m56.66 24.71-.53 2.65c-1.5179434-1.1160379-3.4224513-1.5713432-5.2810319-1.2625213s-3.5135083 1.3555633-4.5889681 2.9025213h-8.26v-4.02c.0118233-.5200006-.1860904-1.0228864-.5491485-1.3953502s-.8607186-.5831722-1.3808515-.5846498h-4.07l-3.48-10.44c-.3004667-.9034778.0755668-1.8936993.9-2.37l4.98-2.84c.3877974-.23093313.8440089-.31934622 1.29-.25.45.07 1.1.17 1.89.31 5.37.91 17.38 3.24 18.92 6.09.1289738.2421019.2328477.4967603.31.76.2108974.6522034.3451346 1.3267455.4 2.01.1686702 2.8252594-.0160924 5.6605247-.55 8.44z" fill="#e64c3c"/><path id="Shape" d="m48.3 27.06c-.8067137.4988004-1.5013162 1.1593537-2.04 1.94h-8.26v-4.02c.0118233-.5200006-.1860904-1.0228864-.5491485-1.3953502s-.8607186-.5831722-1.3808515-.5846498h-4.07l-3.48-10.44c-.3004667-.9034778.0755668-1.8936993.9-2.37l4.98-2.84c.3877974-.23093313.8440089-.31934622 1.29-.25.45.07 1.1.17 1.89.31-.37 1.73-.54 5.03 1.42 9.59l7 2z" fill="#3f5c6c"/><path id="Shape" d="m57.21 16.27-4.44-.05c-.5522847-.0027614-.9977614-.4527153-.995-1.005s.4527153-.9977614 1.005-.995h.01l4.02.04c.2108974.6522034.3451346 1.3267455.4 2.01z" fill="#f0c419"/></g></g></g></svg>